# xmcd
#
# Track frame offsets:
#	150
#	23973
#	46882
#	78960
#	97545
#	120344
#	147260
#	176322
#	193771
#	220715
#
# Disc length: 3358 seconds
#
# Revision: 0
# Processed by: cddbd v1.5.1PL2 Copyright (c) Steve Scherf et al.
# Submitted via: dBpowerAMP V4.0
#
DISCID=730d1c0a
DTITLE=Working Mojo - Live At Dexter
DYEAR=2006
DGENRE=Blues
TTITLE0=Early In The Morning
TTITLE1=Honey Lover
TTITLE2=Sky Is Crying
TTITLE3=Diving Duck
TTITLE4=Help Me
TTITLE5=Dust My Broom
TTITLE6=Need Your Love So Bad
TTITLE7=Jumpin', Rockin', Rythm
TTITLE8=Green Onions
TTITLE9=Knock On Wood
EXTD=
EXTT0=
EXTT1=
EXTT2=
EXTT3=
EXTT4=
EXTT5=
EXTT6=
EXTT7=
EXTT8=
EXTT9=
PLAYORDER=
